# AST/ASF file generated using VICON BodyLanguage
# -----------------------------------------------
:version 1.10
:name VICON
:units
  mass 1.0
  length 0.45
  angle deg
:documentation
   .ast/.asf automatically generated from VICON data using
   VICON BodyBuilder and BodyLanguage model FoxedUp or BRILLIANT.MOD
:root
   order TX TY TZ RX RY RZ
   axis XYZ
   position 0 0 0  
   orientation 0 0 0 
:bonedata
  begin
     id 1 
     name lhipjoint
     direction 0.693937 -0.600361 0.397515 
     length 2.37164 
     axis 0 0 0  XYZ
  end
  begin
     id 2 
     name lfemur
     direction 0.34202 -0.939693 0  
     length 6.18497  
     axis 0 0 20  XYZ
    dof rx ry rz
    limits (-160.0 20.0)
           (-70.0 70.0)
           (-60.0 70.0)
  end
  begin
     id 3 
     name ltibia
     direction 0.34202 -0.939693 0   
     length 6.91601   
     axis 0 0 20   XYZ
    dof rx
    limits (-10.0 170.0)
  end
  begin
     id 4 
     name lfoot
     direction 0.0978718 -0.2689 0.958182   
     length 1.81453   
     axis -90 7.62852e-016 20   XYZ
    dof rx rz
    limits (-45.0 90.0)
           (-70.0 20.0)
  end
  begin
     id 5 
     name ltoes
     direction 1.53569e-011 -4.21951e-011 1   
     length 0.912052   
     axis -90 7.62852e-016 20   XYZ
    dof rx
    limits (-90.0 20.0)
  end
  begin
     id 6 
     name rhipjoint
     direction -0.643996 -0.637876 0.422354   
     length 2.23216  
     axis 0 0 0  XYZ 
  end
  begin
     id 7 
     name rfemur
     direction -0.34202 -0.939693 0   
     length 6.15404   
     axis 0 0 -20   XYZ
    dof rx ry rz
    limits (-160.0 20.0)
           (-70.0 70.0)
           (-70.0 60.0)
  end
  begin
     id 8 
     name rtibia
     direction -0.34202 -0.939693 0   
     length 6.86744   
     axis 0 0 -20   XYZ
    dof rx
    limits (-10.0 170.0)
 end
 begin
     id 9 
     name rfoot
     direction -0.118701 -0.326127 0.937844   
     length 1.9243  
     axis -90 -7.62852e-016 -20   XYZ
    dof rx rz
    limits (-45.0 90.0)
           (-20.0 70.0)
  end
  begin
     id 10 
     name rtoes
     direction -1.5356e-011 -4.2181e-011 1   
     length 0.958865   
     axis -90 -7.62852e-016 -20   XYZ
    dof rx
    limits (-90.0 20.0)
  end
  begin
     id 11 
     name lowerback
     direction 0.0310826 0.968686 -0.246334   
     length 2.00021   
     axis 0 0 0   XYZ
    dof rx ry rz
    limits (-20.0 45.0)
           (-30.0 30.0)
           (-30.0 30.0)
  end
  begin
     id 12 
     name upperback
     direction -0.0152834 0.999474 -0.0286152   
     length 2.03728   
     axis 0 0 0   XYZ
    dof rx ry rz
    limits (-20.0 45.0)
           (-30.0 30.0)
           (-30.0 30.0)
  end
  begin
     id 13 
     name thorax
     direction -0.0323701 0.996236 0.0804149   
     length 2.16   
     axis 0 0 0   XYZ
    dof rx ry rz
    limits (-20.0 45.0)
           (-30.0 30.0)
           (-30.0 30.0)
  end
  begin
     id 14 
     name lowerneck
     direction 0.0307935 0.982251 0.185027   
     length 1.43558   
     axis 0 0 0   XYZ
    dof rx ry rz
    limits (-20.0 45.0)
           (-30.0 30.0)
           (-30.0 30.0)
  end
  begin
     id 15 
     name upperneck
     direction -0.0927153 0.994775 0.0427454   
     length 1.44603   
     axis 0 0 0   XYZ
    dof rx ry rz
    limits (-20.0 45.0)
           (-30.0 30.0)
           (-30.0 30.0)
  end
  begin
     id 16
     name head
     direction -0.0341265 0.999406 -0.00472033  
     length 1.45931  
     axis 0 0 0   XYZ
    dof rx ry rz
    limits (-20.0 45.0)
           (-30.0 30.0)
           (-30.0 30.0)
  end
  begin
     id 17 
     name lclavicle
     direction 0.820755 0.555306 -0.134151  
     length 2.66075  
     axis 0 0 0   XYZ
    dof ry rz
    limits (-20.0 10.0)
           (0.0 20.0)
  end
  begin
     id 18 
     name lhumerus
     direction 1 -4.48971e-011 5.24853e-027   
     length 5.0546   
     axis -180 -30 -90   XYZ
    dof rx ry rz
    limits (-60.0 90.0)
           (-90.0 90.0)
           (-90.0 90.0)
  end
  begin
     id 19
     name lradius
     direction 1 -4.48971e-011 2.76575e-028   
     length 3.39013   
     axis -180 -30 -90   XYZ
    dof rx
    limits (-10.0 170.0)
  end
  begin
     id 20
     name lwrist
     direction 1 -4.48939e-011 -2.27826e-027   
     length 1.69507   
     axis 2.17013e-015 90 90   XYZ
    dof ry
    limits (-180.0 0.0)
 end
  begin
     id 21 
     name lhand
     direction 1 -4.49009e-011 -4.55652e-027   
     length 0.572425   
     axis 2.90745e-015 90 90   XYZ
    dof rx rz
    limits (-90.0 90.0)
           (-45.0 45.0)
  end
  begin
     id 22 
     name lfingers
     direction 1 -4.48955e-011 -9.11303e-027   
     length 0.461504   
     axis 5.81489e-015 90 90   XYZ
    dof rx
    limits (0.0 90.0)
  end
  begin
     id 23
     name lthumb
     direction 0.707107 -6.34929e-011 0.707107   
     length 0.66263   
     axis -90 45 2.85299e-015   XYZ
    dof rx rz
    limits (-45.0 45.0)
           (-45.0 45.0)
  end
  begin
     id 24 
     name rclavicle
     direction -0.754477 0.632921 -0.173712   
     length 2.73081  
     axis 0 0 0   XYZ 
    dof ry rz
    limits (-10.0 20.0)
           (-20.0 0.0)
  end
  begin
     id 25 
     name rhumerus
     direction -1 -4.48969e-011 5.1496e-027  
     length 5.0701   
     axis -180 30 90   XYZ
    dof rx ry rz
    limits (-90.0 60.0)
           (-90.0 90.0)
           (-90.0 90.0)
  end
  begin
     id 26 
     name rradius
     direction -1 -4.48967e-011 -7.15624e-028   
     length 3.14957   
     axis -180 30 90   XYZ
    dof rx
    limits (-10.0 170.0)
  end
  begin
     id 27 
     name rwrist
     direction -1 -4.48938e-011 -2.27826e-027   
     length 1.57479   
     axis 2.17013e-015 -90 -90   XYZ
    dof ry
    limits (-180.0 0.0)
  end
  begin
     id 28
     name rhand
     direction -1 -4.49008e-011 -4.55652e-027   
     length 0.718191   
     axis 2.90745e-015 -90 -90   XYZ
    dof rx rz
    limits (-90.0 90.0)
           (-45.0 45.0)
  end
  begin
     id 29
     name rfingers
     direction -1 -4.48953e-011 -9.11303e-027   
     length 0.579024   
     axis 5.81489e-015 -90 -90   XYZ
    dof rx
    limits (0.0 90.0)
  end
  begin
     id 30
     name rthumb
     direction -0.707107 -6.34937e-011 0.707107   
     length 0.831366   
     axis -90 -45 -2.85299e-015   XYZ
    dof rx rz
    limits (-45.0 45.0)
           (-45.0 45.0)
  end
:hierarchy
  begin
    root lhipjoint rhipjoint lowerback
    lhipjoint lfemur
    lfemur ltibia
    ltibia lfoot
    lfoot ltoes
    rhipjoint rfemur
    rfemur rtibia
    rtibia rfoot
    rfoot rtoes
    lowerback upperback
    upperback thorax
    thorax lowerneck lclavicle rclavicle
    lowerneck upperneck
    upperneck head
    lclavicle lhumerus
    lhumerus lradius
    lradius lwrist
    lwrist lhand lthumb
    lhand lfingers
    rclavicle rhumerus
    rhumerus rradius
    rradius rwrist
    rwrist rhand rthumb
    rhand rfingers
  end

#!OML:ASF H:\Male1\Project 1\Capture day 1\Session 1\Male1.ASF
:FULLY-SPECIFIED
:DEGREES
119
root -8.29521 15.0232 5.49898 -17.0441 63.9234 -22.6606
lowerback 13.4761 0.240041 1.63884
upperback 8.80488 0.929939 -6.3589
thorax 1.90629 0.901053 -7.77875
lowerneck 1.99384 9.02744 10.7886
upperneck -10.0509 11.4071 -17.9841
head -1.50433 6.07052 -7.31263
rclavicle 2.06736e-014 1.59028e-014
rhumerus -11.2655 -28.1432 -3.33345
rradius 31.5953
rwrist -25.0316
rhand -39.2997 -6.80165
rfingers 7.12502
rthumb -12.2926 -36.4203
lclavicle 2.06736e-014 1.59028e-014
lhumerus -31.9841 26.3281 3.58994
lradius 28.8676
lwrist 14.5043
lhand -28.3815 30.1132
lfingers 7.12502
lthumb -1.75438 60.0857
rfemur -1.40645 -3.70954 33.3941
rtibia 48.5094
rfoot -3.14864 -11.4548
rtoes -31.7725
lfemur -34.5744 1.52604 -21.6478
ltibia 48.7543
lfoot -16.284 2.01105
ltoes -12.0154
120
root -7.82794 14.9913 5.79346 -18.2915 64.097 -23.1669
lowerback 13.6309 0.259531 1.47834
upperback 8.9577 0.954798 -6.25138
thorax 1.98388 0.913457 -7.57344
lowerneck 2.0669 9.16841 10.9773
upperneck -10.0012 11.6024 -18.2953
head -1.43855 6.17455 -7.43216
rclavicle 1.43125e-014 7.31528e-014
rhumerus -10.6335 -27.3901 -3.29015
rradius 31.8581
rwrist -24.6937
rhand -39.3608 -6.45938
rfingers 7.12502
rthumb -12.3515 -36.0745
lclavicle 1.43125e-014 7.31528e-014
lhumerus -33.0156 26.5584 3.1754
lradius 28.8842
lwrist 14.7894
lhand -28.3947 31.0829
lfingers 7.12502
lthumb -1.76716 61.0554
rfemur -2.64803 -4.29097 32.5414
rtibia 53.7161
rfoot -2.58038 -11.7838
rtoes -31.1165
lfemur -32.2195 1.01474 -22.4656
ltibia 45.3909
lfoot -15.4325 2.52246
ltoes -4.66967
121
root -7.36933 14.9352 6.0793 -19.159 64.291 -23.1507
lowerback 13.9042 0.30285 1.09053
upperback 9.08493 0.985383 -6.19382
thorax 1.96807 0.918384 -7.29463
lowerneck 2.23902 9.30105 11.3218
upperneck -9.90306 11.8073 -18.5928
head -1.36408 6.27943 -7.57522
rclavicle 1.11319e-014 6.04305e-014
rhumerus -10.0641 -26.6834 -3.13516
rradius 32.1864
rwrist -24.458
rhand -39.416 -6.1288
rfingers 7.12502
rthumb -12.4048 -35.7407
lclavicle 1.11319e-014 6.04305e-014
lhumerus -34.0304 26.9429 2.54244
lradius 28.8491
lwrist 15.0199
lhand -28.3562 32.1979
lfingers 7.12502
lthumb -1.72997 62.1706
rfemur -4.42503 -4.50067 31.4183
rtibia 59.1601
rfoot -3.28222 -13.4781
rtoes -30.5101
lfemur -29.5128 0.405812 -23.221
ltibia 43.4527
lfoot -15.6383 3.52383
ltoes 2.85286
122
root -6.92329 14.8593 6.35777 -19.2533 64.6322 -22.3152
lowerback 14.2527 0.384902 0.324292
upperback 9.17388 1.02398 -6.25288
thorax 1.86843 0.913755 -6.9274
lowerneck 2.45289 9.40552 11.769
upperneck -9.77487 11.9902 -18.8213
head -1.28876 6.36798 -7.71527
rclavicle 6.36111e-015 1.59028e-014
rhumerus -9.73149 -26.0211 -2.89429
rradius 32.5874
rwrist -24.3228
rhand -39.5295 -5.75832
rfingers 7.12502
rthumb -12.5142 -35.3636
lclavicle 6.36111e-015 1.59028e-014
lhumerus -34.9125 27.4885 1.78895
lradius 28.7865
lwrist 15.1776
lhand -28.3182 33.2895
lfingers 7.12502
lthumb -1.69327 63.2625
rfemur -6.87143 -4.26282 29.9147
rtibia 64.5127
rfoot -4.93632 -16.063
rtoes -29.3415
lfemur -26.7067 -0.231732 -24.1366
ltibia 42.7201
lfoot -16.9228 4.60249
ltoes 8.76831
123
root -6.49145 14.7732 6.62827 -18.4499 65.1981 -20.6763
lowerback 14.6053 0.492216 -0.793953
upperback 9.22864 1.05322 -6.44537
thorax 1.72845 0.894952 -6.50303
lowerneck 2.65686 9.47616 12.2268
upperneck -9.67723 12.1308 -18.9474
head -1.23343 6.43194 -7.82791
rclavicle 0 -8.5875e-014
rhumerus -9.72966 -25.4257 -2.59767
rradius 33.042
rwrist -24.2399
rhand -39.7207 -5.43545
rfingers 7.12502
rthumb -12.6985 -35.0294
lclavicle 0 -8.5875e-014
lhumerus -35.574 28.1236 1.10369
lradius 28.7473
lwrist 15.3385
lhand -28.3318 34.2259
lfingers 7.12502
lthumb -1.70639 64.1989
rfemur -10.1212 -3.54087 28.0663
rtibia 69.4095
rfoot -7.03537 -18.7964
rtoes -27.8057
lfemur -24.0175 -0.891829 -25.2637
ltibia 42.7703
lfoot -18.9081 5.52589
ltoes 12.3179
124
root -6.0735 14.691 6.8901 -17.0727 65.9869 -18.6908
lowerback 14.9097 0.583637 -2.03277
upperback 9.27206 1.04476 -6.71112
thorax 1.60283 0.85737 -6.08579
lowerneck 2.81948 9.5109 12.6438
upperneck -9.66185 12.2118 -19.0499
head -1.20797 6.46804 -7.9308
rclavicle 6.36111e-014 1.27222e-014
rhumerus -10.0464 -24.9648 -2.27476
rradius 33.5067
rwrist -24.1639
rhand -39.9618 -5.21477
rfingers 7.12502
rthumb -12.931 -34.7941
lclavicle 6.36111e-014 1.27222e-014
lhumerus -35.9659 28.787 0.696179
lradius 28.7509
lwrist 15.5682
lhand -28.4064 34.8376
lfingers 7.12502
lthumb -1.77844 64.81
rfemur -14.128 -2.39935 26.0871
rtibia 73.4179
rfoot -9.0475 -20.9918
rtoes -26.4644
lfemur -21.601 -1.6004 -26.4166
ltibia 43.187
lfoot -21.0344 6.17715
ltoes 13.5699
125
root -5.66407 14.6295 7.14191 -15.6145 66.9359 -16.8958
lowerback 15.1341 0.625246 -3.13134
upperback 9.33486 0.98818 -6.95623
thorax 1.54294 0.803052 -5.72092
lowerneck 2.94369 9.54235 12.9574
upperneck -9.70014 12.2736 -19.1963
head -1.19741 6.50031 -8.03207
rclavicle -2.22639e-014 -3.81667e-014
rhumerus -10.5621 -24.695 -1.94914
rradius 33.926
rwrist -24.0722
rhand -40.2137 -5.20096
rfingers 7.12502
rthumb -13.1737 -34.7648
lclavicle -2.22639e-014 -3.81667e-014
lhumerus -36.1088 29.357 0.769663
lradius 28.8304
lwrist 15.9375
lhand -28.5112 35.1389
lfingers 7.12502
lthumb -1.87961 65.1103
rfemur -18.5828 -0.928082 24.1768
rtibia 76.0738
rfoot -10.4535 -22.2734
rtoes -26.2351
lfemur -19.5074 -2.38328 -27.372
ltibia 43.7059
lfoot -22.7326 6.51235
ltoes 12.6817
126
root -5.25503 14.6017 7.3827 -14.7252 67.9741 -15.9361
lowerback 15.272 0.587745 -3.83777
upperback 9.43944 0.877958 -7.08389
thorax 1.57424 0.733607 -5.44467
lowerneck 3.04105 9.58286 13.1529
upperneck -9.77569 12.3313 -19.449
head -1.19252 6.53947 -8.14814
rclavicle -3.33958e-014 1.90833e-014
rhumerus -11.112 -24.6361 -1.66085
rradius 34.2468
rwrist -23.9604
rhand -40.4264 -5.3325
rfingers 7.12502
rthumb -13.3788 -34.8829
lclavicle -3.33958e-014 1.90833e-014
lhumerus -36.0588 29.8457 1.37089
lradius 28.957
lwrist 16.3282
lhand -28.5478 35.1098
lfingers 7.12502
lthumb -1.91501 65.081
rfemur -23.0318 0.765925 22.5491
rtibia 76.981
rfoot -11.4323 -22.7616
rtoes -26.7723
lfemur -17.7011 -3.21056 -27.9054
ltibia 44.2251
lfoot -23.7205 6.52724
ltoes 11.2199
127
root -4.84202 14.6099 7.61282 -14.8749 69.0902 -16.1881
lowerback 15.3792 0.464416 -4.07392
upperback 9.60324 0.713779 -7.04502
thorax 1.68222 0.649285 -5.2479
lowerneck 3.12734 9.62957 13.2607
upperneck -9.86098 12.3856 -19.8298
head -1.18411 6.58593 -8.29071
rclavicle -3.33958e-014 2.8625e-014
rhumerus -11.5854 -24.7978 -1.4232
rradius 34.4312
rwrist -23.9638
rhand -40.5785 -5.50589
rfingers 7.12502
rthumb -13.5254 -35.0466
lclavicle -3.33958e-014 2.8625e-014
lhumerus -35.8633 30.2335 2.46639
lradius 29.1104
lwrist 16.6939
lhand -28.4238 34.7257
lfingers 7.12502
lthumb -1.7952 64.6979
rfemur -26.9965 2.54565 21.2707
rtibia 75.9509
rfoot -12.0425 -22.8829
rtoes -27.9092
lfemur -16.04 -3.98584 -27.9623
ltibia 44.796
lfoot -23.8777 6.54739
ltoes 8.72745
128
root -4.41743 14.6604 7.83325 -16.3971 70.2407 -17.8674
lowerback 15.4939 0.273753 -3.8564
upperback 9.83163 0.515882 -6.82462
thorax 1.85073 0.559789 -5.10823
lowerneck 3.23106 9.65992 13.3252
upperneck -9.94742 12.4132 -20.3109
head -1.17775 6.62654 -8.46135
rclavicle -2.54444e-014 -3.18055e-015
rhumerus -11.9113 -25.0382 -1.25361
rradius 34.4895
rwrist -24.0287
rhand -40.754 -5.74153
rfingers 7.12502
rthumb -13.6946 -35.2709
lclavicle -2.54444e-014 -3.18055e-015
lhumerus -35.5727 30.493 3.95046
lradius 29.3036
lwrist 17.0148
lhand -28.135 34.1914
lfingers 7.12502
lthumb -1.51625 64.1657
rfemur -29.9975 4.38345 20.3383
rtibia 72.9461
rfoot -12.2797 -22.9045
rtoes -29.2766
lfemur -14.5288 -4.6569 -27.5219
ltibia 45.5986
lfoot -23.2209 6.38395
ltoes 5.38989
129
root -3.9797 14.7472 8.04621 -19.1962 71.4018 -20.7708
lowerback 15.6678 0.053798 -3.3554
upperback 10.1252 0.314325 -6.47127
thorax 2.05548 0.478005 -4.98745
lowerneck 3.27653 9.65171 13.394
upperneck -10.0146 12.3856 -20.8171
head -1.16288 6.63878 -8.6403
rclavicle -3.02153e-014 -1.27222e-014
rhumerus -12.1301 -25.3574 -1.12118
rradius 34.4731
rwrist -24.1354
rhand -40.8565 -5.90059
rfingers 7.12502
rthumb -13.7934 -35.4233
lclavicle -3.02153e-014 -1.27222e-014
lhumerus -35.1854 30.7302 5.65203
lradius 29.5228
lwrist 17.2642
lhand -27.7417 33.584
lfingers 7.12502
lthumb -1.13647 63.5607
rfemur -31.823 6.31132 19.5973
rtibia 68.2209
rfoot -12.2185 -22.9229
rtoes -30.5852
lfemur -13.2704 -5.11414 -26.7423
ltibia 46.8945
lfoot -21.7101 6.16558
ltoes 1.23071
130
root -3.53157 14.8438 8.25672 -23.0763 72.518 -24.6771
lowerback 15.8899 -0.147133 -2.75191
upperback 10.4373 0.147993 -6.00072
thorax 2.25535 0.416301 -4.80512
lowerneck 3.25516 9.58569 13.4534
upperneck -10.0541 12.2793 -21.2784
head -1.14703 6.60746 -8.80403
rclavicle -5.725e-014 -6.67916e-014
rhumerus -12.2675 -25.6729 -0.965032
rradius 34.4508
rwrist -24.2362
rhand -40.9621 -5.95718
rfingers 7.12502
rthumb -13.8951 -35.473
lclavicle -5.725e-014 -6.67916e-014
lhumerus -34.7657 30.9895 7.41628
lradius 29.7735
lwrist 17.4902
lhand -27.3734 32.9093
lfingers 7.12502
lthumb -0.78073 62.8876
rfemur -32.554 8.39231 18.9246
rtibia 62.2905
rfoot -11.9932 -22.7426
rtoes -31.5918
lfemur -12.4953 -5.2185 -25.7524
ltibia 48.9607
lfoot -19.4817 5.92409
ltoes -3.27866
131
root -3.07502 14.9242 8.46709 -27.9764 73.5661 -29.4686
lowerback 16.1568 -0.334 -2.09256
upperback 10.7608 0.00832871 -5.4648
thorax 2.44647 0.371374 -4.58943
lowerneck 3.14954 9.47504 13.4991
upperneck -10.0386 12.116 -21.6179
head -1.12277 6.53798 -8.92339
rclavicle -7.95139e-015 -2.54444e-014
rhumerus -12.3235 -25.9647 -0.797634
rradius 34.4929
rwrist -24.3458
rhand -41.1206 -5.86742
rfingers 7.12502
rthumb -14.0479 -35.3727
lclavicle -7.95139e-015 -2.54444e-014
lhumerus -34.3751 31.2631 9.08124
lradius 30.0805
lwrist 17.7939
lhand -27.1785 32.2325
lfingers 7.12502
lthumb -0.592485 62.2114
rfemur -32.2927 10.6629 18.2504
rtibia 55.7465
rfoot -11.678 -22.301
rtoes -32.0016
lfemur -12.2713 -4.9786 -24.6667
ltibia 51.95
lfoot -16.8924 5.7215
ltoes -7.39153
